<?xml version="1.0" encoding="UTF-8"?>
<!DOCTYPE svg PUBLIC "-//W3C//DTD SVG 1.1//EN" "http://www.w3.org/Graphics/SVG/1.1/DTD/svg11.dtd">
<svg xmlns="http://www.w3.org/2000/svg" version="1.1" width="40px" height="40px" style="shape-rendering:geometricPrecision; text-rendering:geometricPrecision; image-rendering:optimizeQuality; fill-rule:evenodd; clip-rule:evenodd" xmlns:xlink="http://www.w3.org/1999/xlink">
<g><path style="opacity:0.936" fill="#fefafa" d="M 13.5,-0.5 C 17.5,-0.5 21.5,-0.5 25.5,-0.5C 32.1667,2.16667 36.8333,6.83333 39.5,13.5C 39.5,17.5 39.5,21.5 39.5,25.5C 36.8333,32.1667 32.1667,36.8333 25.5,39.5C 21.5,39.5 17.5,39.5 13.5,39.5C 6.83333,36.8333 2.16667,32.1667 -0.5,25.5C -0.5,21.5 -0.5,17.5 -0.5,13.5C 2.16667,6.83333 6.83333,2.16667 13.5,-0.5 Z"/></g>
<g><path style="opacity:1" fill="#d63224" d="M 20.5,28.5 C 19.8333,28.5 19.1667,28.5 18.5,28.5C 16.4086,28.3184 14.4086,28.6518 12.5,29.5C 11.7189,28.2713 11.2189,26.938 11,25.5C 5.58539,23.3345 3.75206,19.6678 5.5,14.5C 7.72241,14.822 9.55575,14.1554 11,12.5C 11.3678,13.91 12.2011,14.91 13.5,15.5C 14.724,13.1725 14.724,10.8392 13.5,8.5C 14.2739,7.28882 15.1072,7.28882 16,8.5C 17.1667,6.83333 18.3333,5.16667 19.5,3.5C 20.6667,5.16667 21.8333,6.83333 23,8.5C 23.8928,7.28882 24.7261,7.28882 25.5,8.5C 24.4383,11.1029 24.2716,13.7695 25,16.5C 27.1848,13.3145 30.0181,12.6478 33.5,14.5C 35.2479,19.6678 33.4146,23.3345 28,25.5C 27.51,26.7932 27.3433,28.1266 27.5,29.5C 25.1944,29.0074 22.861,28.6741 20.5,28.5 Z"/></g>
<g><path style="opacity:1" fill="#e67d76" d="M 18.5,28.5 C 19.1667,28.5 19.8333,28.5 20.5,28.5C 19.8333,39.1667 19.1667,39.1667 18.5,28.5 Z"/></g>
</svg>
